<?xml version="1.0" encoding="UTF-8" standalone="no"?>
<!DOCTYPE svg PUBLIC "-//W3C//DTD SVG 1.1//EN" "http://www.w3.org/Graphics/SVG/1.1/DTD/svg11.dtd">
<svg width="100%" height="100%" viewBox="0 0 300 300" version="1.1" xmlns="http://www.w3.org/2000/svg" xmlns:xlink="http://www.w3.org/1999/xlink" xml:space="preserve" xmlns:serif="http://www.serif.com/" style="fill-rule:evenodd;clip-rule:evenodd;stroke-linejoin:round;stroke-miterlimit:2;">
    <g transform="matrix(0.539568,0,0,0.539568,-142.986,-46.4029)">
        <path d="M583.251,88.929C556.559,85.024 529.441,85.024 502.749,88.929L476.016,161.756C466.187,165.011 456.609,168.979 447.357,173.627L376.957,141.034C355.322,157.146 336.146,176.322 320.034,197.957L352.627,268.357C347.979,277.609 344.011,287.187 340.756,297.016L267.929,323.749C264.024,350.441 264.024,377.559 267.929,404.251L340.756,430.984C344.011,440.813 347.979,450.391 352.627,459.643L320.034,530.043C336.146,551.678 355.322,570.854 376.957,586.966L447.357,554.373C456.609,559.021 466.187,562.989 476.016,566.244L502.749,639.071C529.441,642.976 556.559,642.976 583.251,639.071L609.984,566.244C619.813,562.989 629.391,559.021 638.643,554.373L709.043,586.966C730.678,570.854 749.854,551.678 765.966,530.043L733.373,459.643C738.021,450.391 741.989,440.813 745.244,430.984L818.071,404.251C821.976,377.559 821.976,350.441 818.071,323.749L745.244,297.016C741.989,287.187 738.021,277.609 733.373,268.357L765.966,197.957C749.854,176.322 730.678,157.146 709.043,141.034L638.643,173.627C629.391,168.979 619.813,165.011 609.984,161.756L583.251,88.929ZM543,197.782C634.738,197.782 709.218,272.262 709.218,364C709.218,455.738 634.738,530.218 543,530.218C451.262,530.218 376.782,455.738 376.782,364C376.782,272.262 451.262,197.782 543,197.782Z"/>
    </g>
</svg>
