<?xml version="1.0" encoding="UTF-8" standalone="no"?>
<!DOCTYPE svg PUBLIC "-//W3C//DTD SVG 1.1//EN" "http://www.w3.org/Graphics/SVG/1.1/DTD/svg11.dtd">
<svg width="100%" height="100%" viewBox="0 0 300 300" version="1.1" xmlns="http://www.w3.org/2000/svg" xmlns:xlink="http://www.w3.org/1999/xlink" xml:space="preserve" xmlns:serif="http://www.serif.com/" style="fill-rule:evenodd;clip-rule:evenodd;stroke-linejoin:round;stroke-miterlimit:2;">
    <g id="Infinity" transform="matrix(0.350202,0,0,0.350202,-37.1045,23.9274)">
        <path d="M543.033,328.815C567.679,303.389 609.252,259.598 648.559,259.598C707.961,255.182 753.911,301.025 750.487,359.435C750.801,417.245 709.866,466.173 654.252,460.532C609.927,460.532 554.656,408.389 534.46,383.771L534.345,383.937L512.928,359.224C512.83,357.777 452.798,298.34 417.515,295.6C380.677,292.739 350.567,322.277 350.567,359.227C348.337,398.034 381.722,429.346 420.361,427.937C445.666,426.948 485.793,388.868 503.731,369.825L526.863,393.755C504.29,421.152 459.09,460.325 419.872,460.325C364.885,464.315 317.886,415.716 317.886,359.227C319.118,300.954 364.922,253.215 417.515,259.598C461.84,259.598 509.52,317.18 534.46,337.528L534.55,337.439L559.032,360.172C565.4,368.695 616.015,431.467 654.252,427.851C691.618,429.933 716.019,398.739 715.507,359.227C717.381,317.59 687.238,288.138 648.559,295.6C621.46,297.705 583.84,333.191 567.035,350.245L543.033,328.815Z" style="fill:rgb(56,93,196);"/>
    </g>
    <g id="Gear" transform="matrix(0.539568,0,0,0.539568,-142.986,-46.4029)">
        <path d="M583.251,88.929C556.559,85.024 529.441,85.024 502.749,88.929L476.016,161.756C466.187,165.011 456.609,168.979 447.357,173.627L376.957,141.034C355.322,157.146 336.146,176.322 320.034,197.957L352.627,268.357C347.979,277.609 344.011,287.187 340.756,297.016L267.929,323.749C264.024,350.441 264.024,377.559 267.929,404.251L340.756,430.984C344.011,440.813 347.979,450.391 352.627,459.643L320.034,530.043C336.146,551.678 355.322,570.854 376.957,586.966L447.357,554.373C456.609,559.021 466.187,562.989 476.016,566.244L502.749,639.071C529.441,642.976 556.559,642.976 583.251,639.071L609.984,566.244C619.813,562.989 629.391,559.021 638.643,554.373L709.043,586.966C730.678,570.854 749.854,551.678 765.966,530.043L733.373,459.643C738.021,450.391 741.989,440.813 745.244,430.984L818.071,404.251C821.976,377.559 821.976,350.441 818.071,323.749L745.244,297.016C741.989,287.187 738.021,277.609 733.373,268.357L765.966,197.957C749.854,176.322 730.678,157.146 709.043,141.034L638.643,173.627C629.391,168.979 619.813,165.011 609.984,161.756L583.251,88.929ZM543,197.782C634.738,197.782 709.218,272.262 709.218,364C709.218,455.738 634.738,530.218 543,530.218C451.262,530.218 376.782,455.738 376.782,364C376.782,272.262 451.262,197.782 543,197.782Z" style="fill:rgb(56,93,196);"/>
    </g>
</svg>
